<svg xmlns="http://www.w3.org/2000/svg" xmlns:xlink="http://www.w3.org/1999/xlink" id="图层_1" data-name="图层 1" viewBox="0 0 1502.15 406.8"><defs><style>.cls-1{fill:url(#未命名的渐变_3)}.cls-2{fill:url(#未命名的渐变_3-2)}.cls-3{fill:url(#未命名的渐变_3-3)}.cls-4{fill:url(#未命名的渐变_3-4)}.cls-5{fill:url(#未命名的渐变_3-5)}.cls-6{fill:url(#未命名的渐变_3-6)}.cls-7{fill:url(#未命名的渐变_3-7)}.cls-8{fill:url(#未命名的渐变_3-8)}</style><linearGradient id="未命名的渐变_3" x1="193.01" x2="1727.9" y1="528.77" y2="520.61" gradientUnits="userSpaceOnUse"><stop offset="0" stop-color="#3a9af0"/><stop offset="1" stop-color="#9854fb"/></linearGradient><linearGradient id="未命名的渐变_3-2" x1="193" x2="1727.89" y1="527.06" y2="518.9" xlink:href="#未命名的渐变_3"/><linearGradient id="未命名的渐变_3-3" x1="193.01" x2="1727.9" y1="528.52" y2="520.36" xlink:href="#未命名的渐变_3"/><linearGradient id="未命名的渐变_3-4" x1="192.45" x2="1727.34" y1="422.92" y2="414.75" xlink:href="#未命名的渐变_3"/><linearGradient id="未命名的渐变_3-5" x1="192.46" x2="1727.35" y1="425.58" y2="417.42" xlink:href="#未命名的渐变_3"/><linearGradient id="未命名的渐变_3-6" x1="193.6" x2="1728.49" y1="640.13" y2="631.97" xlink:href="#未命名的渐变_3"/><linearGradient id="未命名的渐变_3-7" x1="193.61" x2="1728.5" y1="641.22" y2="633.06" xlink:href="#未命名的渐变_3"/><linearGradient id="未命名的渐变_3-8" x1="192.99" x2="1727.88" y1="525.28" y2="517.11" xlink:href="#未命名的渐变_3"/></defs><title>GBDC logo</title><path d="M1076.41,449.89c1.42,1.83,2.81,3.68,4.12,5.59a119.63,119.63,0,0,1,.58,134.77c-1.58,2.34-3.26,4.59-5,6.81a114.41,114.41,0,0,0,73.57,40.54,202.75,202.75,0,0,0,.51-227.85,116.27,116.27,0,0,0-23.44,5.5A114.31,114.31,0,0,0,1076.41,449.89Z" class="cls-1" transform="translate(-205.85 -319.88)"/><path d="M993.52,642.57q-5.81.57-11.76.58H902V403.45h79.8a120.7,120.7,0,0,1,12.32.63A207.17,207.17,0,0,1,1068,339.32a202,202,0,0,0-84.75-19.22v0H818.6V726.51H983.25v0a202,202,0,0,0,83.83-18.79A206.35,206.35,0,0,1,993.52,642.57Z" class="cls-2" transform="translate(-205.85 -319.88)"/><path d="M1170.09,648A124.76,124.76,0,0,1,1118,407.56a126.67,126.67,0,0,1,19.94-6.12,124.69,124.69,0,0,1,138.57,67l67.21-29.67a198.19,198.19,0,0,0-188.23-113.44,199.51,199.51,0,0,0-84.76,23.42,198.16,198.16,0,0,0,15.75,356.89h0c99,42.32,213.69-2.43,258.2-99.8L1277.18,577A125,125,0,0,1,1170.09,648Z" class="cls-3" transform="translate(-205.85 -319.88)"/><path d="M1421.71,455.2A161.45,161.45,0,0,1,1438.44,441q12.55-8.83,25.8-16.73,7.9-4.65,15.34-10a79.36,79.36,0,0,0,11.85-10.92,35,35,0,0,0,7.67-20.91,27.14,27.14,0,0,0-2.09-9.29,24.69,24.69,0,0,0-6-7.2,29.85,29.85,0,0,0-18.59-5.81,32.27,32.27,0,0,0-19.52,6.27A32.86,32.86,0,0,0,1442.16,382l-38.34-6a78.8,78.8,0,0,1,9.53-22.31,64.33,64.33,0,0,1,16.5-16.5,75.37,75.37,0,0,1,22.31-9.53,110.85,110.85,0,0,1,20.22-2.32,124.77,124.77,0,0,1,23.94,2.79,62.54,62.54,0,0,1,23.47,11.39,52.42,52.42,0,0,1,14.18,18.13,59.27,59.27,0,0,1,4.65,23,85.75,85.75,0,0,1-2.79,19.75,63.17,63.17,0,0,1-7.2,15.34,90.31,90.31,0,0,1-17,17.43q-10,7.44-20.45,13.94-10.69,6.51-20.68,13.94a110.28,110.28,0,0,0-11.39,11.15h81.56v34.39h-139V484.48A104.51,104.51,0,0,1,1421.71,455.2Z" class="cls-4" transform="translate(-205.85 -319.88)"/><path d="M1568.8,382.23a108.64,108.64,0,0,1,6.74-18.36,87.65,87.65,0,0,1,9.53-14.64A66.78,66.78,0,0,1,1609,331.11a71.32,71.32,0,0,1,27.19-5.81q30.9.93,51.12,24.17a97.41,97.41,0,0,1,9.29,14.64,104.26,104.26,0,0,1,7,18.59A159.94,159.94,0,0,1,1708,418a173.9,173.9,0,0,1-4.18,35.79,108.74,108.74,0,0,1-6.74,18.36,97.57,97.57,0,0,1-9.3,14.64,67.46,67.46,0,0,1-24.17,17.89,73.14,73.14,0,0,1-27.42,5.81,76.63,76.63,0,0,1-27.65-5.58,70.56,70.56,0,0,1-23.94-18.13,87.53,87.53,0,0,1-9.29-14.41,115.56,115.56,0,0,1-6.74-18.59,144.77,144.77,0,0,1-4-35.79A139.45,139.45,0,0,1,1568.8,382.23ZM1605.52,438a70.27,70.27,0,0,0,6,20.68,32.85,32.85,0,0,0,10.22,12.78,25.08,25.08,0,0,0,14.41,4.42,22,22,0,0,0,10.92-2.32,31.46,31.46,0,0,0,11.62-10.92,72.78,72.78,0,0,0,7.2-18.82A131.21,131.21,0,0,0,1668.5,418a172.78,172.78,0,0,0-1.63-19.75,77.92,77.92,0,0,0-6-20.45,37.11,37.11,0,0,0-10.46-13,26.23,26.23,0,0,0-14.18-4.65,30.92,30.92,0,0,0-11.15,2.56,32.12,32.12,0,0,0-11.39,10.92,63.16,63.16,0,0,0-7.2,18.82,118.82,118.82,0,0,0-2.32,25.56A141.08,141.08,0,0,0,1605.52,438Z" class="cls-5" transform="translate(-205.85 -319.88)"/><path d="M1451.91,544.46H1487V722.23h-38.57V586.75l-34.63,16.73-11.85-33.23Z" class="cls-6" transform="translate(-205.85 -319.88)"/><path d="M1571.58,646a54.47,54.47,0,0,1,23.47-15.8,46.81,46.81,0,0,1-21.61-17,36.57,36.57,0,0,1-7.2-21.38,50.56,50.56,0,0,1,4.88-21.61,48.29,48.29,0,0,1,14.18-16.5,66.12,66.12,0,0,1,22.54-10.22,118.75,118.75,0,0,1,22.31-2.56,117,117,0,0,1,21.84,2.56,65.19,65.19,0,0,1,22.77,10,47.72,47.72,0,0,1,14.18,16.73,52.14,52.14,0,0,1,5.11,21.61A43.22,43.22,0,0,1,1685,616.5a41.42,41.42,0,0,1-19.75,13.94,54.56,54.56,0,0,1,24.87,16.26,41,41,0,0,1,9.29,26.26,64,64,0,0,1-3.72,20.22A46.89,46.89,0,0,1,1681.26,712a69.55,69.55,0,0,1-23,10.69,129.84,129.84,0,0,1-27.89,3.49A134.07,134.07,0,0,1,1602,722.7a64.86,64.86,0,0,1-22.54-10.92,42.69,42.69,0,0,1-14.41-18.59,59.67,59.67,0,0,1-3.49-20.22A42.3,42.3,0,0,1,1571.58,646Zm38.11,43.45a35.71,35.71,0,0,0,20.68,5.81,36.39,36.39,0,0,0,20.68-5.81,22.91,22.91,0,0,0,8.83-18.12,23.55,23.55,0,0,0-7.67-17.89,29.46,29.46,0,0,0-9.76-5.11,54.65,54.65,0,0,0-12.08-1.86,52,52,0,0,0-12.08,1.86,33.3,33.3,0,0,0-9.76,5.35,22.56,22.56,0,0,0-7.43,17.66A22.23,22.23,0,0,0,1609.69,689.46Zm3.49-79.24a26.38,26.38,0,0,0,17,5.35,26,26,0,0,0,16.73-5.35,21,21,0,0,0,7.67-16.27,21.53,21.53,0,0,0-7.44-16,26.82,26.82,0,0,0-17-5.81,27.41,27.41,0,0,0-17.43,6,21.45,21.45,0,0,0,.47,32.07Z" class="cls-7" transform="translate(-205.85 -319.88)"/><path d="M782.46,442.42A122.68,122.68,0,0,0,659.91,319.88H559.21v83.37H659.91a39.17,39.17,0,1,1,0,78.34H559.12V565h100.8a39.17,39.17,0,1,1,0,78.34H545V566.54h-.2V565h.09V481.59h-.09l-83.37,59.8V643.31H409.07a119.85,119.85,0,1,1,0-239.69H544.8V320.25H407.58v0c-111.37.81-201.73,91.64-201.73,203.2s90.36,202.39,201.73,203.2v0H659.91a122.45,122.45,0,0,0,92-203.4A122,122,0,0,0,782.46,442.42Z" class="cls-8" transform="translate(-205.85 -319.88)"/></svg>